<svg width="42" height="42" viewBox="0 0 42 42" fill="none" xmlns="http://www.w3.org/2000/svg">
<path d="M21 0.5C32.313 0.500001 41.5 9.68391 41.5 20.9971C41.4999 32.31 32.3131 41.5 21 41.5C9.68689 41.5 0.500081 32.31 0.5 20.9971C0.5 9.68391 9.68704 0.5 21 0.5ZM21 3.03809C11.0714 3.03809 3.03809 11.0687 3.03809 20.9971C3.03817 30.9256 11.0717 38.9619 21 38.9619C30.9283 38.9619 38.9618 30.9256 38.9619 20.9971C38.9619 11.0687 30.9286 3.03809 21 3.03809ZM17.8047 12.9443L25.958 20.6367L26.3438 21L25.958 21.3633L17.8047 29.0557L17.4619 29.3799L17.1182 29.0557L16.042 28.041L15.6562 27.6768L16.041 27.3135L22.7324 21L16.041 14.6865L15.6562 14.3232L16.042 13.959L17.1182 12.9443L17.4619 12.6201L17.8047 12.9443Z" fill="#00366B" stroke="#00366B"/>
</svg>
