<svg width="42" height="42" viewBox="0 0 42 42" fill="none" xmlns="http://www.w3.org/2000/svg">
<path d="M21 41.5C9.68704 41.5 0.500001 32.3161 0.500002 21.0029C0.500083 9.69003 9.68689 0.499998 21 0.499998C32.3131 0.499999 41.4999 9.69003 41.5 21.0029C41.5 32.3161 32.313 41.5 21 41.5ZM21 38.9619C30.9286 38.9619 38.9619 30.9313 38.9619 21.0029C38.9618 11.0744 30.9283 3.03809 21 3.03808C11.0717 3.03808 3.03817 11.0744 3.03809 21.0029C3.03809 30.9313 11.0714 38.9619 21 38.9619ZM24.1953 29.0557L16.042 21.3633L15.6563 21L16.042 20.6367L24.1953 12.9443L24.5381 12.6201L24.8818 12.9443L25.958 13.959L26.3438 14.3232L25.959 14.6865L19.2676 21L25.959 27.3135L26.3438 27.6768L25.958 28.041L24.8818 29.0557L24.5381 29.3799L24.1953 29.0557Z" fill="#A0A3BD" stroke="#A0A3BD"/>
</svg>
